<!-- https://www.reshot.com/free-svg-icons/item/mosque-NDBUTGL64S/ -->
<svg xmlns="http://www.w3.org/2000/svg" xml:space="preserve" width="2048" height="2048" style="shape-rendering:geometricPrecision;text-rendering:geometricPrecision;image-rendering:optimizeQuality;fill-rule:evenodd;clip-rule:evenodd"><defs><style>.fil0{fill:#f60}.fil2,.fil3{fill:#424242;fill-rule:nonzero}.fil3{fill:#64b5f6}</style></defs><g id="Layer_x0020_1"><path class="fil0" d="M1615.88 1408v224zM1487.88 1408v224zM1359.88 1408v224zM1231.88 1408v224zM1103.88 1408v224zM975.882 1408h-.003v224h.003zM847.882 1408h-.002v224h.002zM719.884 1408h-.003v224h.003z"/><path d="M571.522 1232h1192.72c17.673 0 32 14.328 32 32v512.002c0 17.673-14.327 32-32 32H571.522c-17.673 0-32-14.327-32-32V1264c0-17.673 14.327-32.001 32-32.001zm180.362 144v288h-64.002v-288h64.002zm127.999 0v288h-64.002v-288h64.002zm128 0v288h-64.002v-288h64.002zm128 0v288h-64.002v-288h64.002zm128 0v288h-64.002v-288h64.002zm128 0v288h-64.002v-288h64.002zm128 0v288h-64.002v-288h64.002zm128 0v288h-64.002v-288h64.002z" style="fill:#424242"/><path class="fil2" d="M370.716 1072h201.046c17.673 0 32 14.328 32 32v672.003c0 17.673-14.327 32-32 32H370.716c-17.673 0-32-14.327-32-32V1104c0-17.673 14.327-32.001 32-32.001zM554.397 1040H388.082c-17.673 0-32-14.328-32-32V593.283c0-17.673 14.327-32 32-32h166.315c17.673 0 32 14.327 32 32V1008c0 17.673-14.327 32.001-32 32.001zM497.379 262.847l86.741 222.872.098-.038c6.41 16.47-1.745 35.019-18.215 41.429a31.905 31.905 0 0 1-12.236 2.179H388.082c-17.673 0-32-14.328-32-32.001 0-4.61.976-8.992 2.731-12.952l77.778-222.833 30.126 10.5-30.213-10.546c5.824-16.686 24.073-25.49 40.759-19.667 10.073 3.516 17.273 11.562 20.116 21.057z"/><path class="fil2" d="M626.717 1136H316.434c-13.652.292-26.487-8.246-31.031-21.881l30.358-10.12-30.25 10-31.007-93.02a31.874 31.874 0 0 1-2.744-12.98c0-17.673 14.328-32 32.001-32h374.38c3.538-.064 7.147.46 10.695 1.642 16.766 5.588 25.826 23.712 20.239 40.478l-.133-.044-31.032 93.096c-3.256 14.22-15.986 24.83-31.193 24.83zM603.263 625.289H339.767c-14.172.252-27.298-9.005-31.34-23.285l30.79-8.716-30.75 8.626-26.573-93.886a31.932 31.932 0 0 1-1.85-10.74c0-17.673 14.329-32 32.001-32h317.821a31.99 31.99 0 0 1 9.285 1.21c17.004 4.813 26.888 22.501 22.075 39.505l-.06-.017-26.602 93.982c-3.074 14.467-15.92 25.32-31.3 25.32z"/><path class="fil3" d="M736 1200v-80c0-17.674 14.328-32.002 32-32.002h928.242c17.673 0 32 14.328 32 32.001V1200H736.002z"/><path class="fil3" d="M1261.09 626.683c-5.263-11.438-16.472-18.463-28.964-18.565l-.436.004c-12.25.155-23.424 7.404-28.528 18.56-41.142 86.397-113.661 119.372-196.553 155.507-129.617 56.505-245.032 106.82-185.347 345.564 4.28 17.12 21.63 27.53 38.75 23.25 17.12-4.28 27.53-21.63 23.25-38.75-1.7-6.8-3.192-13.383-4.53-19.8h706.787c-1.337 6.417-2.83 13-4.53 19.8-4.28 17.12 6.13 34.47 23.25 38.75 17.12 4.28 34.47-6.13 38.751-23.25 59.685-238.742-55.73-289.058-185.347-345.564-81.974-35.737-155.974-69.84-196.553-155.506z"/></g><path style="fill:none" d="M0 0h2048v2048H0z"/></svg>
